<svg width="18" height="18" viewBox="0 0 120 120" fill="none" xmlns="http://www.w3.org/2000/svg">
<path d="M101.542 20.3015C102.16 23.1261 104.031 27.6423 109.878 28.6112C110.162 28.6605 110.179 29.0218 109.895 29.0875C107.022 29.6951 102.428 31.5344 101.442 37.2823C101.392 37.5615 101.024 37.5779 100.958 37.2987C100.34 34.4741 98.4685 29.9579 92.6215 28.989C92.3375 28.9397 92.3208 28.5784 92.6048 28.5127C95.4782 27.9051 100.072 26.0658 101.058 20.3179C101.108 20.0387 101.476 20.0223 101.542 20.3015Z" fill="black"/>
<path d="M16.7874 26.3049C17.395 29.1783 19.2343 33.7723 24.9822 34.758C25.2614 34.8081 25.2778 35.1756 24.9986 35.2424C22.174 35.8606 17.6578 37.7316 16.6888 43.5786C16.6396 43.8626 16.2783 43.8793 16.2126 43.5953C15.605 40.7219 13.7656 36.1278 8.01777 35.1422C7.73858 35.0921 7.72216 34.7246 8.00134 34.6577C10.826 34.0396 15.3422 32.1686 16.3111 26.3216C16.3604 26.0376 16.7217 26.0209 16.7874 26.3049Z" fill="black"/>
<path d="M42.2811 0.302036C43.1925 4.53904 45.9515 11.3133 54.5733 12.7667C54.9921 12.8406 55.0167 13.3826 54.598 13.4811C50.361 14.3925 43.5867 17.1515 42.1333 25.7733C42.0594 26.1921 41.5174 26.2167 41.4189 25.798C40.5074 21.561 37.7485 14.7867 29.1267 13.3333C28.7079 13.2594 28.6832 12.7174 29.102 12.6189C33.339 11.7075 40.1133 8.94848 41.5667 0.326668C41.6406 -0.0921059 42.1825 -0.116738 42.2811 0.302036Z" fill="black"/>
<path fill-rule="evenodd" clip-rule="evenodd" d="M46.6983 37.5142H84.8247C85.8855 37.5142 86.9029 37.9356 87.6531 38.6857L109.822 60.8545C111.275 62.3076 111.391 64.6254 110.089 66.2159L68.8573 116.61C67.2569 118.566 64.2661 118.566 62.6657 116.61L21.4338 66.2159C20.1325 64.6254 20.2481 62.3076 21.7012 60.8545L43.8699 38.6857C44.6201 37.9356 45.6375 37.5142 46.6983 37.5142ZM93.8625 63.0769C83.5956 61.3461 80.3102 53.2793 79.2249 48.2338C79.1075 47.7352 78.4622 47.7645 78.3742 48.2632C76.6435 58.5301 68.5766 61.8155 63.5312 62.9008C63.0325 63.0182 63.0618 63.6635 63.5605 63.7515C73.8274 65.4822 77.1128 73.5491 78.1982 78.5945C78.3155 79.0932 78.9609 79.0639 79.0489 78.5652C80.7796 68.2983 88.8464 65.0129 93.8919 63.9275C94.3905 63.8102 94.3612 63.1649 93.8625 63.0769Z" fill="black"/>
</svg>
